<?xml version="1.0" standalone="no"?><!DOCTYPE svg PUBLIC "-//W3C//DTD SVG 1.1//EN" "http://www.w3.org/Graphics/SVG/1.1/DTD/svg11.dtd"><svg t="1650717720037" class="icon" viewBox="0 0 1024 1024" version="1.1" xmlns="http://www.w3.org/2000/svg" p-id="1402" xmlns:xlink="http://www.w3.org/1999/xlink" width="200" height="200"><defs><style type="text/css">@font-face { font-family: feedback-iconfont; src: url("//at.alicdn.com/t/font_1031158_u69w8yhxdu.woff2?t=1630033759944") format("woff2"), url("//at.alicdn.com/t/font_1031158_u69w8yhxdu.woff?t=1630033759944") format("woff"), url("//at.alicdn.com/t/font_1031158_u69w8yhxdu.ttf?t=1630033759944") format("truetype"); }
</style></defs><path d="M674.3296 679.41888H349.67552c-28.27776 0-51.2-22.92224-51.2-51.2V133.12c0-28.27776 22.92224-51.2 51.2-51.2h324.65408c28.27776 0 51.2 22.92224 51.2 51.2v495.09888c0 28.27776-22.92736 51.2-51.2 51.2z" fill="#FFFFFF" p-id="1403"></path><path d="M674.3296 697.33888h-324.6592c-38.10816 0-69.11488-31.0016-69.11488-69.11488V133.12c0-38.10816 31.00672-69.11488 69.11488-69.11488h324.6592c38.11328 0 69.11488 31.00672 69.11488 69.11488v495.104c0 38.10816-31.0016 69.11488-69.11488 69.11488zM349.6704 99.84a33.32096 33.32096 0 0 0-33.28 33.28v495.104c0 18.35008 14.92992 33.28 33.28 33.28h324.6592c18.35008 0 33.28-14.92992 33.28-33.28V133.12c0-18.35008-14.92992-33.28-33.28-33.28h-324.6592z" fill="" p-id="1404"></path><path d="M211.91168 901.12512v-149.41696a40.96 40.96 0 0 1 40.96-40.96h518.25664a40.96 40.96 0 0 1 40.96 40.96v149.41696a40.96 40.96 0 0 1-40.96 40.96H252.87168a40.96 40.96 0 0 1-40.96-40.96z" fill="#FFFFFF" p-id="1405"></path><path d="M771.12832 960H252.87168c-32.46592 0-58.87488-26.41408-58.87488-58.87488v-149.42208c0-32.4608 26.40896-58.87488 58.87488-58.87488h518.26176c32.4608 0 58.87488 26.41408 58.87488 58.87488v149.42208c0 32.4608-26.41408 58.87488-58.88 58.87488zM252.87168 728.66304a23.0656 23.0656 0 0 0-23.04 23.04v149.42208c0 12.70272 10.33216 23.04 23.04 23.04h518.26176c12.70272 0 23.04-10.33216 23.04-23.04v-149.42208c0-12.70272-10.33216-23.04-23.04-23.04H252.87168z" fill="" p-id="1406"></path><path d="M366.978839 263.51408a59.9296 59.9296 0 1 0 101.892804-63.119603 59.9296 59.9296 0 1 0-101.892804 63.119603Z" fill="#FF5757" p-id="1407"></path><path d="M418.05824 309.7856c-26.08128 0-51.58912-13.07648-66.304-36.82816-22.6048-36.49024-11.30496-84.56704 25.18528-107.17696 36.49536-22.59968 84.57216-11.30496 107.17696 25.1904a77.30688 77.30688 0 0 1 9.6 58.8032 77.3376 77.3376 0 0 1-34.7904 48.37376 77.4656 77.4656 0 0 1-40.86784 11.63776z m-0.19456-119.82336a41.7536 41.7536 0 0 0-22.05696 6.28736c-19.69152 12.19584-25.78944 38.144-13.58848 57.83552s38.15424 25.78944 57.83552 13.58848a41.71776 41.71776 0 0 0 18.77504-26.10176 41.71264 41.71264 0 0 0-5.18656-31.72864 42.01984 42.01984 0 0 0-35.77856-19.88096z" fill="" p-id="1408"></path><path d="M395.252895 245.999132a26.67008 26.67008 0 1 0 45.344692-28.089706 26.67008 26.67008 0 1 0-45.344692 28.089706Z" fill="" p-id="1409"></path><path d="M461.047832 412.216664a59.9296 59.9296 0 1 0 101.892804-63.119603 59.9296 59.9296 0 1 0-101.892804 63.119603Z" fill="#FFDD50" p-id="1410"></path><path d="M512.128 458.496c-26.08128 0-51.58912-13.07648-66.304-36.83328-22.59968-36.49024-11.30496-84.56704 25.18528-107.17696a77.34272 77.34272 0 0 1 58.8032-9.6 77.3376 77.3376 0 0 1 48.37376 34.7904 77.32736 77.32736 0 0 1 9.60512 58.8032 77.37344 77.37344 0 0 1-34.7904 48.37376 77.45536 77.45536 0 0 1-40.87296 11.64288z m-0.2048-119.85408a41.74336 41.74336 0 0 0-22.0416 6.31296c-19.69152 12.19584-25.78944 38.144-13.5936 57.83552a41.728 41.728 0 0 0 26.10176 18.76992c10.9312 2.56 22.20032 0.72704 31.73376-5.18656a41.7536 41.7536 0 0 0 18.77504-26.10176 41.71264 41.71264 0 0 0-5.18656-31.72864 41.7536 41.7536 0 0 0-26.10176-18.77504 42.51136 42.51136 0 0 0-9.68704-1.1264z" fill="" p-id="1411"></path><path d="M555.116824 560.924368a59.9296 59.9296 0 1 0 101.892805-63.119603 59.9296 59.9296 0 1 0-101.892805 63.119603Z" fill="#5CB9FF" p-id="1412"></path><path d="M606.21824 607.25248c-5.98016 0-11.99616-0.6912-17.96096-2.08896a77.37344 77.37344 0 0 1-48.37376-34.7904c-22.6048-36.48512-11.30496-84.56704 25.1904-107.17184 36.48512-22.6048 84.56704-11.31008 107.17184 25.18528 22.6048 36.49024 11.30496 84.56704-25.1904 107.17184a77.27104 77.27104 0 0 1-40.83712 11.69408z m-0.22016-119.87456a41.728 41.728 0 0 0-22.05184 6.28736c-19.6864 12.20096-25.78944 38.144-13.58848 57.83552a41.7536 41.7536 0 0 0 26.10176 18.77504c10.91072 2.56 22.1952 0.72704 31.73376-5.18656 19.6864-12.20096 25.78944-38.144 13.58848-57.83552a42.02496 42.02496 0 0 0-35.78368-19.87584z" fill="" p-id="1413"></path><path d="M583.39088 543.409419a26.67008 26.67008 0 1 0 45.344692-28.089706 26.67008 26.67008 0 1 0-45.344692 28.089706Z" fill="" p-id="1414"></path><path d="M771.12832 710.74816H252.87168a40.96 40.96 0 0 0-40.96 40.96v40.74496h600.17664v-40.74496a40.96 40.96 0 0 0-40.96-40.96z" fill="#76E276" p-id="1415"></path><path d="M812.08832 810.368H211.91168a17.92 17.92 0 0 1-17.92-17.92v-40.74496c0-32.4608 26.40896-58.87488 58.87488-58.87488h518.26176c32.4608 0 58.87488 26.41408 58.87488 58.87488v40.74496a17.92 17.92 0 0 1-17.91488 17.92z m-582.25664-35.84h564.33664v-22.82496c0-12.70272-10.33216-23.04-23.04-23.04H252.87168a23.0656 23.0656 0 0 0-23.04 23.04v22.82496z" fill="" p-id="1416"></path><path d="M489.321888 394.701715a26.67008 26.67008 0 1 0 45.344692-28.089706 26.67008 26.67008 0 1 0-45.344692 28.089706Z" fill="" p-id="1417"></path></svg>